<?xml version="1.0" encoding="UTF-8"?>
<svg xmlns="http://www.w3.org/2000/svg" xmlns:xlink="http://www.w3.org/1999/xlink" width="24pt" height="24pt" viewBox="0 0 24 24" version="1.1">
<g id="surface130122">
<path style=" stroke:none;fill-rule:nonzero;fill:rgb(20.392157%,67.45098%,30.588235%);fill-opacity:1;" d="M 19.976562 3.121094 L 19.613281 3.269531 C 19.613281 3.269531 6.636719 8.574219 2.613281 10.265625 L 2.003906 10.527344 L 2.003906 12.78125 L 6.949219 14.757812 L 8.679688 19.996094 L 10.253906 20.007812 L 12.957031 17.722656 L 16.355469 20.996094 L 18.808594 20.996094 L 21.964844 3.875 Z M 19.644531 5.417969 L 17.144531 18.980469 L 13.042969 15.03125 L 10.222656 17.410156 L 11 14.375 L 17.28125 8 L 17.082031 7.800781 C 17.082031 7.800781 10.707031 11.472656 8 13.023438 L 4.535156 11.640625 C 9.078125 9.746094 18.699219 5.804688 19.644531 5.417969 Z M 19.644531 5.417969 "/>
</g>
</svg>
